# xmcd
#
# Track frame offsets:
#	150
#	12090
#	28560
#	48887
#	67517
#	89162
#	103050
#	124085
#	139375
#	158430
#	176807
#	188667
#
# Disc length: 2791 seconds
#
# Revision: 4
# Processed by: cddbd v1.5.1PL2 Copyright (c) Steve Scherf et al.
# Submitted via: dBpowerAMP V4.0
#
DISCID=950ae50c,9f0ae40c
DTITLE=Radney Foster - Labor Of Love
DYEAR=1994
DGENRE=Country
TTITLE0=Willin' To Walk
TTITLE1=Labor Of Love
TTITLE2=My Whole Wide World
TTITLE3=Never Say Die
TTITLE4=Jesse's Soul
TTITLE5=Everybody Gets The Blues
TTITLE6=If It Were Me
TTITLE7=Broke Down
TTITLE8=Precious Pearl
TTITLE9=Last Chance For Love
TTITLE10=Walkin' Talkin' Woman
TTITLE11=Making It Up As I Go Along
EXTD=
EXTT0=
EXTT1=
EXTT2=
EXTT3=
EXTT4=
EXTT5=
EXTT6=
EXTT7=
EXTT8=
EXTT9=
EXTT10=
EXTT11=
PLAYORDER=
